# AST/ASF file generated using VICON BodyLanguage
# -----------------------------------------------
:version 1.10
:name VICON
:units
  mass 1.0
  length 0.45
  angle deg
:documentation
   .ast/.asf automatically generated from VICON data using
   VICON BodyBuilder and BodyLanguage model FoxedUp or BRILLIANT.MOD
:root
   order TX TY TZ RX RY RZ
   axis XYZ
   position 0 0 0  
   orientation 0 0 0 
:bonedata
  begin
     id 1 
     name lhipjoint
     direction 0.521452 -0.77106 0.36545 
     length 2.0933 
     axis 0 0 0  XYZ
  end
  begin
     id 2 
     name lfemur
     direction 0.34202 -0.939693 0  
     length 6.83441  
     axis 0 0 20  XYZ
    dof rx ry rz
    limits (-160.0 20.0)
           (-70.0 70.0)
           (-60.0 70.0)
  end
  begin
     id 3 
     name ltibia
     direction 0.34202 -0.939693 0   
     length 7.28749   
     axis 0 0 20   XYZ
    dof rx
    limits (-10.0 170.0)
  end
  begin
     id 4 
     name lfoot
     direction 0.100608 -0.276418 0.955757   
     length 1.52195   
     axis -90 7.62852e-016 20   XYZ
    dof rx rz
    limits (-45.0 90.0)
           (-70.0 20.0)
  end
  begin
     id 5 
     name ltoes
     direction 1.53558e-011 -4.21907e-011 1   
     length 0.770459   
     axis -90 7.62852e-016 20   XYZ
    dof rx
    limits (-90.0 20.0)
  end
  begin
     id 6 
     name rhipjoint
     direction -0.488071 -0.788702 0.373812   
     length 2.04648  
     axis 0 0 0  XYZ 
  end
  begin
     id 7 
     name rfemur
     direction -0.34202 -0.939693 0   
     length 6.92583   
     axis 0 0 -20   XYZ
    dof rx ry rz
    limits (-160.0 20.0)
           (-70.0 70.0)
           (-70.0 60.0)
  end
  begin
     id 8 
     name rtibia
     direction -0.34202 -0.939693 0   
     length 7.41043   
     axis 0 0 -20   XYZ
    dof rx
    limits (-10.0 170.0)
 end
 begin
     id 9 
     name rfoot
     direction -0.0784433 -0.215521 0.973343   
     length 1.67708  
     axis -90 -7.62852e-016 -20   XYZ
    dof rx rz
    limits (-45.0 90.0)
           (-20.0 70.0)
  end
  begin
     id 10 
     name rtoes
     direction -1.53551e-011 -4.21842e-011 1   
     length 0.849787   
     axis -90 -7.62852e-016 -20   XYZ
    dof rx
    limits (-90.0 20.0)
  end
  begin
     id 11 
     name lowerback
     direction -0.0122332 0.997575 -0.0685192   
     length 1.98724   
     axis 0 0 0   XYZ
    dof rx ry rz
    limits (-20.0 45.0)
           (-30.0 30.0)
           (-30.0 30.0)
  end
  begin
     id 12 
     name upperback
     direction 0.0182347 0.999724 -0.0148421   
     length 1.99029   
     axis 0 0 0   XYZ
    dof rx ry rz
    limits (-20.0 45.0)
           (-30.0 30.0)
           (-30.0 30.0)
  end
  begin
     id 13 
     name thorax
     direction 0.0242908 0.99956 0.0170184   
     length 1.99573   
     axis 0 0 0   XYZ
    dof rx ry rz
    limits (-20.0 45.0)
           (-30.0 30.0)
           (-30.0 30.0)
  end
  begin
     id 14 
     name lowerneck
     direction 0.0654488 0.985533 0.156338   
     length 1.4285   
     axis 0 0 0   XYZ
    dof rx ry rz
    limits (-20.0 45.0)
           (-30.0 30.0)
           (-30.0 30.0)
  end
  begin
     id 15 
     name upperneck
     direction -0.02953 0.998556 -0.0448842   
     length 1.44709   
     axis 0 0 0   XYZ
    dof rx ry rz
    limits (-20.0 45.0)
           (-30.0 30.0)
           (-30.0 30.0)
  end
  begin
     id 16
     name head
     direction -0.0155588 0.999386 -0.0314063  
     length 1.44689  
     axis 0 0 0   XYZ
    dof rx ry rz
    limits (-20.0 45.0)
           (-30.0 30.0)
           (-30.0 30.0)
  end
  begin
     id 17 
     name lclavicle
     direction 0.968229 0.236071 -0.0824755  
     length 3.60593  
     axis 0 0 0   XYZ
    dof ry rz
    limits (-20.0 10.0)
           (0.0 20.0)
  end
  begin
     id 18 
     name lhumerus
     direction 1 -4.48968e-011 7.8138e-029   
     length 5.06035   
     axis 180 -30 -90   XYZ
    dof rx ry rz
    limits (-60.0 90.0)
           (-90.0 90.0)
           (-90.0 90.0)
  end
  begin
     id 19
     name lradius
     direction 1 -4.48967e-011 9.02887e-028   
     length 3.1478   
     axis 180 -30 -90   XYZ
    dof rx
    limits (-10.0 170.0)
  end
  begin
     id 20
     name lwrist
     direction 1 -4.48961e-011 7.20928e-028   
     length 1.5739   
     axis -5.52449e-016 90 90   XYZ
    dof ry
    limits (-180.0 0.0)
 end
  begin
     id 21 
     name lhand
     direction 1 -4.48972e-011 1.44186e-027   
     length 0.606747   
     axis -9.20027e-016 90 90   XYZ
    dof rx rz
    limits (-90.0 90.0)
           (-45.0 45.0)
  end
  begin
     id 22 
     name lfingers
     direction 1 -4.48943e-011 2.88371e-027   
     length 0.489175   
     axis -1.84005e-015 90 90   XYZ
    dof rx
    limits (0.0 90.0)
  end
  begin
     id 23
     name lthumb
     direction 0.707107 -6.34917e-011 0.707107   
     length 0.70236   
     axis -90 45 2.85299e-015   XYZ
    dof rx rz
    limits (-45.0 45.0)
           (-45.0 45.0)
  end
  begin
     id 24 
     name rclavicle
     direction -0.978165 0.207816 0.0022268   
     length 3.35425  
     axis 0 0 0   XYZ 
    dof ry rz
    limits (-10.0 20.0)
           (-20.0 0.0)
  end
  begin
     id 25 
     name rhumerus
     direction -1 -4.48964e-011 -4.02159e-027  
     length 5.12273   
     axis 180 30 90   XYZ
    dof rx ry rz
    limits (-90.0 60.0)
           (-90.0 90.0)
           (-90.0 90.0)
  end
  begin
     id 26 
     name rradius
     direction -1 -4.48966e-011 1.62746e-027   
     length 3.422   
     axis 180 30 90   XYZ
    dof rx
    limits (-10.0 170.0)
  end
  begin
     id 27 
     name rwrist
     direction -1 -4.4896e-011 7.20928e-028   
     length 1.711   
     axis -5.52449e-016 -90 -90   XYZ
    dof ry
    limits (-180.0 0.0)
  end
  begin
     id 28
     name rhand
     direction -1 -4.48979e-011 1.44186e-027   
     length 0.704599   
     axis -9.20027e-016 -90 -90   XYZ
    dof rx rz
    limits (-90.0 90.0)
           (-45.0 45.0)
  end
  begin
     id 29
     name rfingers
     direction -1 -4.48962e-011 2.88371e-027   
     length 0.568066   
     axis -1.84005e-015 -90 -90   XYZ
    dof rx
    limits (0.0 90.0)
  end
  begin
     id 30
     name rthumb
     direction -0.707107 -6.34949e-011 0.707107   
     length 0.815633   
     axis -90 -45 -2.85299e-015   XYZ
    dof rx rz
    limits (-45.0 45.0)
           (-45.0 45.0)
  end
:hierarchy
  begin
    root lhipjoint rhipjoint lowerback
    lhipjoint lfemur
    lfemur ltibia
    ltibia lfoot
    lfoot ltoes
    rhipjoint rfemur
    rfemur rtibia
    rtibia rfoot
    rfoot rtoes
    lowerback upperback
    upperback thorax
    thorax lowerneck lclavicle rclavicle
    lowerneck upperneck
    upperneck head
    lclavicle lhumerus
    lhumerus lradius
    lradius lwrist
    lwrist lhand lthumb
    lhand lfingers
    rclavicle rhumerus
    rhumerus rradius
    rradius rwrist
    rwrist rhand rthumb
    rhand rfingers
  end

#!OML:ASF E:\id_vita\Project 1\Capture day 1\Session 1\Male1.ASF
:FULLY-SPECIFIED
:DEGREES
210
root 15.0994 16.0284 -1.01952 661.969 83.4315 658.936
lowerback -3.49931 1.83235 3.48193
upperback 0.248277 2.28899 0.671431
thorax 2.32583 1.18355 -1.13297
lowerneck -8.19134 1.25744 6.68705
upperneck 5.71976 0.881425 1.06038
head 3.34074 0.654034 -0.780996
rclavicle 1.04735e-014 -1.27222e-014
rhumerus -11.0036 6.21067 -87.8237
rradius 35.468
rwrist -6.31033
rhand -21.9726 37.3125
rfingers 7.12502
rthumb 4.43524 7.37898
lclavicle 1.04735e-014 -1.27222e-014
lhumerus -91.3608 55.3648 -1.39824
lradius 8.76735
lwrist -58.5226
lhand -13.9783 41.7401
lfingers 7.12502
lthumb 12.15 71.3673
rfemur 9.74351 3.66836 29.712
rtibia 9.61494
rfoot -18.348 -3.36141
rtoes -2.10118
lfemur -35.5059 4.63512 -15.9533
ltibia 32.4225
lfoot -20.0782 5.22527
ltoes 1.55866
211
root 15.3041 16.0222 -1.02695 667.094 83.1004 663.792
lowerback -3.84618 2.11652 3.50295
upperback 0.065051 2.65842 0.559557
thorax 2.35517 1.36685 -1.22838
lowerneck -7.54662 1.10444 6.70775
upperneck 5.67863 0.729706 1.06976
head 3.19693 0.576169 -0.789611
rclavicle -2.7395e-014 -1.47101e-014
rhumerus -10.5336 6.68437 -87.735
rradius 36.1091
rwrist -6.65005
rhand -22.3883 37.6399
rfingers 7.12502
rthumb 4.03385 7.69835
lclavicle -2.7395e-014 -1.47101e-014
lhumerus -97.7897 53.5565 -9.77465
lradius 8.74379
lwrist -61.6967
lhand -13.8661 41.5322
lfingers 7.12502
lthumb 12.2582 71.153
rfemur 12.5716 4.21346 29.5281
rtibia 4.94115
rfoot -16.5491 -1.96618
rtoes 0.215018
lfemur -36.1101 3.9321 -15.5217
ltibia 30.5999
lfoot -19.8403 7.18876
ltoes 0.225228
212
root 15.5101 16.0121 -1.03062 670.751 82.6379 667.305
lowerback -4.149 2.33169 3.60763
upperback 0.238008 2.92245 0.548886
thorax 2.7222 1.50652 -1.2629
lowerneck -7.6436 1.08203 6.74205
upperneck 5.42773 0.703362 0.921906
head 3.12967 0.55042 -0.845531
rclavicle 4.90253e-014 1.15295e-014
rhumerus -9.45701 7.15622 -87.5718
rradius 36.749
rwrist -7.0321
rhand -22.7418 37.8177
rfingers 7.12502
rthumb 3.69243 7.86996
lclavicle 4.90253e-014 1.15295e-014
lhumerus -104.003 51.8221 -17.8825
lradius 8.79019
lwrist -64.9548
lhand -14.0204 41.2131
lfingers 7.12502
lthumb 12.1095 70.8426
rfemur 15.6225 4.6943 29.5929
rtibia 3.18055e-014
rfoot -14.4867 -0.938462
rtoes 0.909562
lfemur -36.6074 2.73333 -14.594
ltibia 29.0667
lfoot -19.7864 9.16941
ltoes 0.865304
213
root 15.7108 15.9997 -1.03159 672.88 82.1224 669.401
lowerback -4.17453 2.53635 3.77514
upperback 0.316874 3.18374 0.551313
thorax 2.84033 1.64165 -1.33143
lowerneck -7.76382 1.11066 6.96811
upperneck 5.29682 0.723997 0.720623
head 3.11288 0.554155 -0.950774
rclavicle 3.10104e-014 1.98785e-014
rhumerus -8.62706 7.34417 -87.4797
rradius 37.4262
rwrist -7.35729
rhand -22.8894 37.8757
rfingers 7.12502
rthumb 3.54991 7.92553
lclavicle 3.10104e-014 1.98785e-014
lhumerus -109.303 49.7985 -25.363
lradius 8.71862
lwrist -68.411
lhand -13.975 41.3165
lfingers 7.12502
lthumb 12.1532 70.9435
rfemur 16.3529 5.06723 29.8086
rtibia 9.54166e-015
rfoot -14.6669 -1.05834
rtoes -2.24782
lfemur -36.9687 1.18326 -13.3032
ltibia 27.7991
lfoot -20.2644 10.9982
ltoes 3.99409
214
root 15.908 15.988 -1.03672 675.128 81.6724 671.603
lowerback -4.12875 2.75253 3.89041
upperback 0.307859 3.46913 0.529259
thorax 2.8288 1.78539 -1.39979
lowerneck -7.76397 1.12565 7.09355
upperneck 5.25349 0.74109 0.570442
head 3.10164 0.557882 -1.02171
rclavicle -1.58531e-014 -1.43125e-014
rhumerus -7.95742 7.48042 -87.3526
rradius 37.9849
rwrist -7.51972
rhand -23.0403 38.1464
rfingers 7.12502
rthumb 3.4042 8.19385
lclavicle -1.58531e-014 -1.43125e-014
lhumerus -113.998 47.7752 -32.4274
lradius 8.66398
lwrist -72.1306
lhand -13.8557 41.9924
lfingers 7.12502
lthumb 12.2683 71.6125
rfemur 17.0412 5.44241 29.8639
rtibia -4.77083e-014
rfoot -14.8251 -0.779875
rtoes -1.90086
lfemur -37.2916 -0.627218 -11.9697
ltibia 26.7979
lfoot -18.79 13.0974
ltoes 2.29164
215
root 16.1094 15.9732 -1.04632 678.095 81.284 674.454
lowerback -4.2552 2.98476 3.93845
upperback 0.304088 3.77153 0.465496
thorax 2.92009 1.93819 -1.46272
lowerneck -7.33723 1.10722 6.94432
upperneck 4.89724 0.770821 0.676551
head 2.89575 0.562216 -0.957159
rclavicle -1.78658e-014 -3.18055e-015
rhumerus -7.39764 7.63862 -87.1941
rradius 38.5413
rwrist -7.58906
rhand -23.067 38.3366
rfingers 7.12502
rthumb 3.37835 8.38358
lclavicle -1.78658e-014 -3.18055e-015
lhumerus -118.026 45.1726 -38.7524
lradius 8.88289
lwrist -75.9282
lhand -13.6772 42.484
lfingers 7.12502
lthumb 12.4403 72.0938
rfemur 17.6621 5.87207 29.7439
rtibia 2.8625e-014
rfoot -14.9685 -0.66249
rtoes -2.40985
lfemur -37.6949 -2.66946 -10.6672
ltibia 26.0287
lfoot -19.2793 15.1981
ltoes 6.60811
216
root 16.315 15.9539 -1.05761 680.708 80.9706 676.99
lowerback -4.3708 3.1636 3.95729
upperback 0.310041 4.00512 0.368562
thorax 3.01277 2.05656 -1.54777
lowerneck -6.93085 1.12976 6.78698
upperneck 4.52479 0.849727 0.871395
head 2.69074 0.594032 -0.860675
rclavicle -2.08475e-014 -3.97569e-015
rhumerus -6.91669 7.67568 -87.1629
rradius 39.0835
rwrist -7.51002
rhand -23.0287 38.3171
rfingers 7.12502
rthumb 3.41539 8.36469
lclavicle -2.08475e-014 -3.97569e-015
lhumerus -121.148 41.8185 -44.2214
lradius 9.21009
lwrist -79.8119
lhand -13.4099 42.153
lfingers 7.12502
lthumb 12.6981 71.7469
rfemur 18.3754 6.21215 29.5931
rtibia 9.54166e-015
rfoot -14.9848 -0.817493
rtoes -4.77068
lfemur -37.8926 -3.97306 -9.86465
ltibia 25.4719
lfoot -17.2737 16.6807
ltoes 1.2727
